<svg width="22" height="22" viewBox="0 0 22 22" fill="none" xmlns="http://www.w3.org/2000/svg">
<path d="M16.5075 0C14.5566 0 12.4557 0.51587 11.005 1.93451C9.55434 0.51587 7.45339 0 5.5025 0C4.05184 0 2.51114 0.283728 1.22055 1.01884C0.490223 1.44444 0 2.36011 0 3.40474V17.9523C0 19.6289 1.22055 20.8669 2.48113 20.4542C3.46157 20.1318 4.50205 19.99 5.5025 19.99C7.06321 19.99 8.72397 20.3253 10.0646 21.1765C10.6648 21.5634 11.3452 21.5634 11.9354 21.1765C13.276 20.3124 14.9368 19.99 16.4975 19.99C17.498 19.99 18.5384 20.1318 19.5189 20.4542C20.7794 20.8798 22 19.6418 22 17.9523V3.40474C22 2.36011 21.5098 1.44444 20.7794 1.01884C19.4989 0.283728 17.9582 0 16.5075 0ZM20.0091 16.4176C20.0091 17.2301 19.4288 17.8233 18.8085 17.6814C18.0582 17.5009 17.2779 17.4235 16.5075 17.4235C14.8067 17.4235 12.3556 18.2618 11.005 19.358V4.51386C12.3556 3.41764 14.8067 2.57935 16.5075 2.57935C17.4279 2.57935 18.3383 2.69542 19.2087 2.94046C19.6689 3.06943 20.0091 3.59819 20.0091 4.20434V16.4176Z" fill="url(#paint0_linear_3_347)"/>
<path d="M12.986 8.39575C12.6658 8.39575 12.3757 8.13781 12.2756 7.72512C12.1456 7.22214 12.3657 6.66759 12.7559 6.51282C14.2966 5.86799 16.2875 5.66164 18.1183 5.93247C18.5285 5.99695 18.8286 6.47413 18.7786 7.0029C18.7286 7.53167 18.3584 7.91857 17.9482 7.85409C16.3275 7.60905 14.5567 7.8025 13.2161 8.35706C13.136 8.36996 13.056 8.39575 12.986 8.39575Z" fill="url(#paint1_linear_3_347)"/>
<path d="M12.986 11.8264C12.6658 11.8264 12.3757 11.5684 12.2756 11.1557C12.1456 10.6527 12.3657 10.0982 12.7559 9.94343C14.2865 9.29859 16.2875 9.09224 18.1183 9.36307C18.5285 9.42756 18.8286 9.90474 18.7786 10.4335C18.7286 10.9623 18.3584 11.3492 17.9482 11.2847C16.3275 11.0397 14.5567 11.2331 13.2161 11.7877C13.136 11.8135 13.056 11.8264 12.986 11.8264Z" fill="url(#paint2_linear_3_347)"/>
<path d="M12.986 15.2568C12.6658 15.2568 12.3757 14.9989 12.2756 14.5862C12.1456 14.0832 12.3657 13.5287 12.7559 13.3739C14.2865 12.7291 16.2875 12.5227 18.1183 12.7936C18.5285 12.858 18.8286 13.3352 18.7786 13.864C18.7286 14.3928 18.3584 14.7668 17.9482 14.7152C16.3275 14.4701 14.5567 14.6636 13.2161 15.2181C13.136 15.2439 13.056 15.2568 12.986 15.2568Z" fill="url(#paint3_linear_3_347)"/>
<defs>
<linearGradient id="paint0_linear_3_347" x1="11" y1="0" x2="11" y2="21.4666" gradientUnits="userSpaceOnUse">
<stop stop-color="#1C46DA"/>
<stop offset="1" stop-color="#3289EF"/>
</linearGradient>
<linearGradient id="paint1_linear_3_347" x1="15.5111" y1="5.81628" x2="15.5111" y2="8.39575" gradientUnits="userSpaceOnUse">
<stop stop-color="#1C46DA"/>
<stop offset="1" stop-color="#3289EF"/>
</linearGradient>
<linearGradient id="paint2_linear_3_347" x1="15.5111" y1="9.24689" x2="15.5111" y2="11.8264" gradientUnits="userSpaceOnUse">
<stop stop-color="#1C46DA"/>
<stop offset="1" stop-color="#3289EF"/>
</linearGradient>
<linearGradient id="paint3_linear_3_347" x1="15.5111" y1="12.6774" x2="15.5111" y2="15.2568" gradientUnits="userSpaceOnUse">
<stop stop-color="#1C46DA"/>
<stop offset="1" stop-color="#3289EF"/>
</linearGradient>
</defs>
</svg>
