<svg width="175" height="36" viewBox="0 0 175 36" fill="none" xmlns="http://www.w3.org/2000/svg">
<path d="M17.44 0.343994C19.616 0.343994 21.392 0.647995 22.768 1.256C24.144 1.864 25.376 2.6 26.464 3.464C26.848 3.752 27.168 3.896 27.424 3.896C28.032 3.896 28.432 2.936 28.624 1.016H29.728C29.664 2.264 29.616 3.784 29.584 5.576C29.552 7.336 29.536 9.688 29.536 12.632H28.432C28.208 10.712 27.856 9.048 27.376 7.63999C26.928 6.2 26.08 4.968 24.832 3.944C24.064 3.208 23.104 2.632 21.952 2.216C20.832 1.8 19.696 1.592 18.544 1.592C16.784 1.592 15.28 2.05599 14.032 2.98399C12.784 3.87999 11.76 5.11199 10.96 6.68C10.16 8.248 9.56797 10.024 9.18397 12.008C8.79997 13.96 8.60797 15.992 8.60797 18.104C8.60797 23.864 9.39197 28.072 10.96 30.728C12.56 33.384 14.848 34.712 17.824 34.712C18.592 34.712 19.264 34.616 19.84 34.424C20.416 34.232 20.88 34.008 21.232 33.752C21.68 33.432 21.984 33.096 22.144 32.744C22.304 32.36 22.384 31.864 22.384 31.256V26.552C22.384 25.08 22.256 23.992 22 23.288C21.776 22.552 21.312 22.056 20.608 21.8C19.904 21.544 18.88 21.4 17.536 21.368V20.408C18.208 20.44 19.008 20.472 19.936 20.504C20.896 20.504 21.888 20.52 22.912 20.552C23.936 20.552 24.88 20.552 25.744 20.552C27.088 20.552 28.32 20.536 29.44 20.504C30.56 20.472 31.472 20.44 32.176 20.408V21.368C31.568 21.4 31.104 21.512 30.784 21.704C30.496 21.896 30.288 22.28 30.16 22.856C30.064 23.432 30.016 24.312 30.016 25.496V35H29.056C29.024 34.456 28.896 33.864 28.672 33.224C28.48 32.584 28.144 32.264 27.664 32.264C27.44 32.264 27.136 32.328 26.752 32.456C26.4 32.552 25.84 32.824 25.072 33.272C23.888 33.944 22.64 34.52 21.328 35C20.016 35.448 18.64 35.672 17.2 35.672C13.488 35.672 10.352 34.984 7.79197 33.608C5.23197 32.232 3.29596 30.264 1.98396 27.704C0.703965 25.112 0.0639648 22.008 0.0639648 18.392C0.0639648 14.744 0.799965 11.576 2.27196 8.888C3.77596 6.2 5.82397 4.104 8.41597 2.6C11.04 1.09599 14.048 0.343994 17.44 0.343994Z" fill="#141414"/>
<path d="M17.44 0.343994C19.616 0.343994 21.392 0.647995 22.768 1.256C24.144 1.864 25.376 2.6 26.464 3.464C26.848 3.752 27.168 3.896 27.424 3.896C28.032 3.896 28.432 2.936 28.624 1.016H29.728C29.664 2.264 29.616 3.784 29.584 5.576C29.552 7.336 29.536 9.688 29.536 12.632H28.432C28.208 10.712 27.856 9.048 27.376 7.63999C26.928 6.2 26.08 4.968 24.832 3.944C24.064 3.208 23.104 2.632 21.952 2.216C20.832 1.8 19.696 1.592 18.544 1.592C16.784 1.592 15.28 2.05599 14.032 2.98399C12.784 3.87999 11.76 5.11199 10.96 6.68C10.16 8.248 9.56797 10.024 9.18397 12.008C8.79997 13.96 8.60797 15.992 8.60797 18.104C8.60797 23.864 9.39197 28.072 10.96 30.728C12.56 33.384 14.848 34.712 17.824 34.712C18.592 34.712 19.264 34.616 19.84 34.424C20.416 34.232 20.88 34.008 21.232 33.752C21.68 33.432 21.984 33.096 22.144 32.744C22.304 32.36 22.384 31.864 22.384 31.256V26.552C22.384 25.08 22.256 23.992 22 23.288C21.776 22.552 21.312 22.056 20.608 21.8C19.904 21.544 18.88 21.4 17.536 21.368V20.408C18.208 20.44 19.008 20.472 19.936 20.504C20.896 20.504 21.888 20.52 22.912 20.552C23.936 20.552 24.88 20.552 25.744 20.552C27.088 20.552 28.32 20.536 29.44 20.504C30.56 20.472 31.472 20.44 32.176 20.408V21.368C31.568 21.4 31.104 21.512 30.784 21.704C30.496 21.896 30.288 22.28 30.16 22.856C30.064 23.432 30.016 24.312 30.016 25.496V35H29.056C29.024 34.456 28.896 33.864 28.672 33.224C28.48 32.584 28.144 32.264 27.664 32.264C27.44 32.264 27.136 32.328 26.752 32.456C26.4 32.552 25.84 32.824 25.072 33.272C23.888 33.944 22.64 34.52 21.328 35C20.016 35.448 18.64 35.672 17.2 35.672C13.488 35.672 10.352 34.984 7.79197 33.608C5.23197 32.232 3.29596 30.264 1.98396 27.704C0.703965 25.112 0.0639648 22.008 0.0639648 18.392C0.0639648 14.744 0.799965 11.576 2.27196 8.888C3.77596 6.2 5.82397 4.104 8.41597 2.6C11.04 1.09599 14.048 0.343994 17.44 0.343994Z" fill="black" fill-opacity="0.2"/>
<path d="M58.3528 9.656V29.768C58.3528 31.208 58.5768 32.28 59.0248 32.984C59.4728 33.656 60.2728 33.992 61.4248 33.992V35C60.4328 34.904 59.4408 34.856 58.4488 34.856C57.1048 34.856 55.8568 34.904 54.7048 35C53.5528 35.096 52.4648 35.272 51.4408 35.528V31.208C50.6728 32.808 49.6008 33.96 48.2248 34.664C46.8808 35.336 45.3768 35.672 43.7128 35.672C42.3688 35.672 41.2808 35.496 40.4488 35.144C39.6168 34.792 38.9608 34.344 38.4808 33.8C37.9368 33.192 37.5528 32.392 37.3288 31.4C37.1048 30.408 36.9928 29.128 36.9928 27.56V15.416C36.9928 13.976 36.7688 12.92 36.3208 12.248C35.9048 11.544 35.1048 11.192 33.9208 11.192V10.184C34.9448 10.28 35.9368 10.328 36.8968 10.328C38.2408 10.328 39.4888 10.28 40.6408 10.184C41.8248 10.056 42.9128 9.88 43.9048 9.656V29.528C43.9048 30.328 43.9688 31.032 44.0968 31.64C44.2568 32.248 44.5448 32.728 44.9608 33.08C45.3768 33.4 45.9848 33.56 46.7848 33.56C47.6488 33.56 48.4168 33.32 49.0888 32.84C49.7928 32.36 50.3528 31.704 50.7688 30.872C51.2168 30.008 51.4408 29.048 51.4408 27.992V15.416C51.4408 13.976 51.2168 12.92 50.7688 12.248C50.3528 11.544 49.5528 11.192 48.3688 11.192V10.184C49.3928 10.28 50.3848 10.328 51.3448 10.328C52.6888 10.328 53.9368 10.28 55.0888 10.184C56.2728 10.056 57.3608 9.88 58.3528 9.656Z" fill="#141414"/>
<path d="M58.3528 9.656V29.768C58.3528 31.208 58.5768 32.28 59.0248 32.984C59.4728 33.656 60.2728 33.992 61.4248 33.992V35C60.4328 34.904 59.4408 34.856 58.4488 34.856C57.1048 34.856 55.8568 34.904 54.7048 35C53.5528 35.096 52.4648 35.272 51.4408 35.528V31.208C50.6728 32.808 49.6008 33.96 48.2248 34.664C46.8808 35.336 45.3768 35.672 43.7128 35.672C42.3688 35.672 41.2808 35.496 40.4488 35.144C39.6168 34.792 38.9608 34.344 38.4808 33.8C37.9368 33.192 37.5528 32.392 37.3288 31.4C37.1048 30.408 36.9928 29.128 36.9928 27.56V15.416C36.9928 13.976 36.7688 12.92 36.3208 12.248C35.9048 11.544 35.1048 11.192 33.9208 11.192V10.184C34.9448 10.28 35.9368 10.328 36.8968 10.328C38.2408 10.328 39.4888 10.28 40.6408 10.184C41.8248 10.056 42.9128 9.88 43.9048 9.656V29.528C43.9048 30.328 43.9688 31.032 44.0968 31.64C44.2568 32.248 44.5448 32.728 44.9608 33.08C45.3768 33.4 45.9848 33.56 46.7848 33.56C47.6488 33.56 48.4168 33.32 49.0888 32.84C49.7928 32.36 50.3528 31.704 50.7688 30.872C51.2168 30.008 51.4408 29.048 51.4408 27.992V15.416C51.4408 13.976 51.2168 12.92 50.7688 12.248C50.3528 11.544 49.5528 11.192 48.3688 11.192V10.184C49.3928 10.28 50.3848 10.328 51.3448 10.328C52.6888 10.328 53.9368 10.28 55.0888 10.184C56.2728 10.056 57.3608 9.88 58.3528 9.656Z" fill="black" fill-opacity="0.2"/>
<path d="M73.0622 9.512C74.4062 9.512 75.5742 9.688 76.5662 10.04C77.5902 10.36 78.3262 10.68 78.7742 11C79.8622 11.736 80.5342 11.256 80.7902 9.56H81.7982C81.7342 10.456 81.6862 11.56 81.6542 12.872C81.6222 14.152 81.6062 15.864 81.6062 18.008H80.5982C80.4382 16.824 80.1342 15.656 79.6862 14.504C79.2382 13.352 78.5822 12.408 77.7182 11.672C76.8862 10.936 75.7982 10.568 74.4542 10.568C73.5262 10.568 72.7422 10.84 72.1022 11.384C71.4622 11.896 71.1422 12.648 71.1422 13.64C71.1422 14.6 71.4302 15.448 72.0062 16.184C72.5822 16.888 73.3182 17.576 74.2142 18.248C75.1422 18.888 76.1022 19.576 77.0942 20.312C78.1502 21.112 79.1102 21.912 79.9742 22.712C80.8382 23.48 81.5262 24.328 82.0382 25.256C82.5502 26.184 82.8062 27.288 82.8062 28.568C82.8062 30.008 82.3902 31.272 81.5582 32.36C80.7262 33.416 79.6222 34.232 78.2462 34.808C76.9022 35.384 75.3982 35.672 73.7342 35.672C72.7742 35.672 71.9102 35.576 71.1422 35.384C70.4062 35.192 69.7662 34.952 69.2222 34.664C68.8062 34.472 68.4062 34.296 68.0222 34.136C67.6702 33.944 67.3342 33.784 67.0142 33.656C66.6942 33.56 66.4062 33.672 66.1502 33.992C65.9262 34.312 65.7502 34.76 65.6222 35.336H64.6142C64.6782 34.312 64.7262 33.064 64.7582 31.592C64.7902 30.12 64.8062 28.168 64.8062 25.736H65.8142C66.0062 27.464 66.3582 29 66.8702 30.344C67.3822 31.656 68.0702 32.696 68.9342 33.464C69.8302 34.2 70.9502 34.568 72.2942 34.568C72.8382 34.568 73.3662 34.456 73.8782 34.232C74.3902 34.008 74.8062 33.64 75.1262 33.128C75.4782 32.616 75.6542 31.96 75.6542 31.16C75.6542 29.752 75.1902 28.584 74.2622 27.656C73.3662 26.728 72.2142 25.72 70.8062 24.632C69.7822 23.8 68.8062 22.984 67.8782 22.184C66.9822 21.352 66.2462 20.456 65.6702 19.496C65.0942 18.504 64.8062 17.384 64.8062 16.136C64.8062 14.696 65.1902 13.48 65.9582 12.488C66.7262 11.496 67.7342 10.76 68.9822 10.28C70.2622 9.768 71.6222 9.512 73.0622 9.512Z" fill="#141414"/>
<path d="M73.0622 9.512C74.4062 9.512 75.5742 9.688 76.5662 10.04C77.5902 10.36 78.3262 10.68 78.7742 11C79.8622 11.736 80.5342 11.256 80.7902 9.56H81.7982C81.7342 10.456 81.6862 11.56 81.6542 12.872C81.6222 14.152 81.6062 15.864 81.6062 18.008H80.5982C80.4382 16.824 80.1342 15.656 79.6862 14.504C79.2382 13.352 78.5822 12.408 77.7182 11.672C76.8862 10.936 75.7982 10.568 74.4542 10.568C73.5262 10.568 72.7422 10.84 72.1022 11.384C71.4622 11.896 71.1422 12.648 71.1422 13.64C71.1422 14.6 71.4302 15.448 72.0062 16.184C72.5822 16.888 73.3182 17.576 74.2142 18.248C75.1422 18.888 76.1022 19.576 77.0942 20.312C78.1502 21.112 79.1102 21.912 79.9742 22.712C80.8382 23.48 81.5262 24.328 82.0382 25.256C82.5502 26.184 82.8062 27.288 82.8062 28.568C82.8062 30.008 82.3902 31.272 81.5582 32.36C80.7262 33.416 79.6222 34.232 78.2462 34.808C76.9022 35.384 75.3982 35.672 73.7342 35.672C72.7742 35.672 71.9102 35.576 71.1422 35.384C70.4062 35.192 69.7662 34.952 69.2222 34.664C68.8062 34.472 68.4062 34.296 68.0222 34.136C67.6702 33.944 67.3342 33.784 67.0142 33.656C66.6942 33.56 66.4062 33.672 66.1502 33.992C65.9262 34.312 65.7502 34.76 65.6222 35.336H64.6142C64.6782 34.312 64.7262 33.064 64.7582 31.592C64.7902 30.12 64.8062 28.168 64.8062 25.736H65.8142C66.0062 27.464 66.3582 29 66.8702 30.344C67.3822 31.656 68.0702 32.696 68.9342 33.464C69.8302 34.2 70.9502 34.568 72.2942 34.568C72.8382 34.568 73.3662 34.456 73.8782 34.232C74.3902 34.008 74.8062 33.64 75.1262 33.128C75.4782 32.616 75.6542 31.96 75.6542 31.16C75.6542 29.752 75.1902 28.584 74.2622 27.656C73.3662 26.728 72.2142 25.72 70.8062 24.632C69.7822 23.8 68.8062 22.984 67.8782 22.184C66.9822 21.352 66.2462 20.456 65.6702 19.496C65.0942 18.504 64.8062 17.384 64.8062 16.136C64.8062 14.696 65.1902 13.48 65.9582 12.488C66.7262 11.496 67.7342 10.76 68.9822 10.28C70.2622 9.768 71.6222 9.512 73.0622 9.512Z" fill="black" fill-opacity="0.2"/>
<path d="M95.4741 2.31199V10.184H101.138V11.144H95.4741V30.536C95.4741 31.496 95.6501 32.184 96.0021 32.6C96.3541 32.984 96.8821 33.176 97.5861 33.176C98.1621 33.176 98.7381 32.968 99.3141 32.552C99.8901 32.104 100.402 31.352 100.85 30.296L101.666 30.728C101.154 32.168 100.37 33.352 99.3141 34.28C98.2901 35.208 96.8821 35.672 95.0901 35.672C94.0341 35.672 93.1061 35.528 92.3061 35.24C91.5061 34.984 90.8341 34.584 90.2901 34.04C89.5861 33.336 89.1221 32.472 88.8981 31.448C88.6741 30.392 88.5621 29.032 88.5621 27.368V11.144H84.5301V10.184H88.5621V3.84799C89.9061 3.84799 91.1381 3.736 92.2581 3.512C93.4101 3.256 94.4821 2.856 95.4741 2.31199Z" fill="#141414"/>
<path d="M95.4741 2.31199V10.184H101.138V11.144H95.4741V30.536C95.4741 31.496 95.6501 32.184 96.0021 32.6C96.3541 32.984 96.8821 33.176 97.5861 33.176C98.1621 33.176 98.7381 32.968 99.3141 32.552C99.8901 32.104 100.402 31.352 100.85 30.296L101.666 30.728C101.154 32.168 100.37 33.352 99.3141 34.28C98.2901 35.208 96.8821 35.672 95.0901 35.672C94.0341 35.672 93.1061 35.528 92.3061 35.24C91.5061 34.984 90.8341 34.584 90.2901 34.04C89.5861 33.336 89.1221 32.472 88.8981 31.448C88.6741 30.392 88.5621 29.032 88.5621 27.368V11.144H84.5301V10.184H88.5621V3.84799C89.9061 3.84799 91.1381 3.736 92.2581 3.512C93.4101 3.256 94.4821 2.856 95.4741 2.31199Z" fill="black" fill-opacity="0.2"/>
<path d="M109.229 35.336C107.789 35.336 106.589 35.064 105.629 34.52C104.669 33.976 103.965 33.256 103.517 32.36C103.069 31.432 102.845 30.424 102.845 29.336C102.845 27.96 103.149 26.84 103.757 25.976C104.397 25.112 105.213 24.408 106.205 23.864C107.197 23.32 108.237 22.872 109.325 22.52C110.445 22.168 111.501 21.832 112.493 21.512C113.517 21.16 114.333 20.76 114.941 20.312C115.581 19.832 115.901 19.224 115.901 18.488V14.744C115.901 13.912 115.757 13.176 115.469 12.536C115.213 11.864 114.797 11.352 114.221 11C113.677 10.648 112.957 10.472 112.061 10.472C111.421 10.472 110.781 10.568 110.141 10.76C109.501 10.92 108.973 11.208 108.557 11.624C109.453 11.944 110.141 12.44 110.621 13.112C111.133 13.752 111.389 14.488 111.389 15.32C111.389 16.408 111.005 17.272 110.237 17.912C109.501 18.552 108.621 18.872 107.597 18.872C106.445 18.872 105.565 18.52 104.957 17.816C104.381 17.08 104.093 16.2 104.093 15.176C104.093 14.248 104.317 13.48 104.765 12.872C105.245 12.264 105.901 11.688 106.733 11.144C107.629 10.632 108.701 10.232 109.949 9.944C111.229 9.656 112.605 9.512 114.077 9.512C115.549 9.512 116.877 9.672 118.061 9.992C119.245 10.28 120.237 10.824 121.037 11.624C121.773 12.36 122.253 13.272 122.477 14.36C122.701 15.416 122.813 16.76 122.813 18.392V31.448C122.813 32.248 122.893 32.808 123.053 33.128C123.213 33.416 123.485 33.56 123.869 33.56C124.157 33.56 124.429 33.48 124.685 33.32C124.973 33.16 125.277 32.968 125.597 32.744L126.077 33.56C125.405 34.136 124.621 34.584 123.725 34.904C122.861 35.192 121.885 35.336 120.797 35.336C119.613 35.336 118.669 35.176 117.965 34.856C117.261 34.504 116.749 34.04 116.429 33.464C116.141 32.888 115.997 32.216 115.997 31.448C115.229 32.664 114.301 33.624 113.213 34.328C112.125 35 110.797 35.336 109.229 35.336ZM112.637 32.264C113.277 32.264 113.853 32.12 114.365 31.832C114.909 31.512 115.421 31 115.901 30.296V20.456C115.613 20.936 115.213 21.368 114.701 21.752C114.189 22.136 113.645 22.536 113.069 22.952C112.493 23.336 111.933 23.768 111.389 24.248C110.877 24.728 110.461 25.32 110.141 26.024C109.821 26.728 109.661 27.576 109.661 28.568C109.661 29.816 109.933 30.744 110.477 31.352C111.021 31.96 111.741 32.264 112.637 32.264Z" fill="#141414"/>
<path d="M109.229 35.336C107.789 35.336 106.589 35.064 105.629 34.52C104.669 33.976 103.965 33.256 103.517 32.36C103.069 31.432 102.845 30.424 102.845 29.336C102.845 27.96 103.149 26.84 103.757 25.976C104.397 25.112 105.213 24.408 106.205 23.864C107.197 23.32 108.237 22.872 109.325 22.52C110.445 22.168 111.501 21.832 112.493 21.512C113.517 21.16 114.333 20.76 114.941 20.312C115.581 19.832 115.901 19.224 115.901 18.488V14.744C115.901 13.912 115.757 13.176 115.469 12.536C115.213 11.864 114.797 11.352 114.221 11C113.677 10.648 112.957 10.472 112.061 10.472C111.421 10.472 110.781 10.568 110.141 10.76C109.501 10.92 108.973 11.208 108.557 11.624C109.453 11.944 110.141 12.44 110.621 13.112C111.133 13.752 111.389 14.488 111.389 15.32C111.389 16.408 111.005 17.272 110.237 17.912C109.501 18.552 108.621 18.872 107.597 18.872C106.445 18.872 105.565 18.52 104.957 17.816C104.381 17.08 104.093 16.2 104.093 15.176C104.093 14.248 104.317 13.48 104.765 12.872C105.245 12.264 105.901 11.688 106.733 11.144C107.629 10.632 108.701 10.232 109.949 9.944C111.229 9.656 112.605 9.512 114.077 9.512C115.549 9.512 116.877 9.672 118.061 9.992C119.245 10.28 120.237 10.824 121.037 11.624C121.773 12.36 122.253 13.272 122.477 14.36C122.701 15.416 122.813 16.76 122.813 18.392V31.448C122.813 32.248 122.893 32.808 123.053 33.128C123.213 33.416 123.485 33.56 123.869 33.56C124.157 33.56 124.429 33.48 124.685 33.32C124.973 33.16 125.277 32.968 125.597 32.744L126.077 33.56C125.405 34.136 124.621 34.584 123.725 34.904C122.861 35.192 121.885 35.336 120.797 35.336C119.613 35.336 118.669 35.176 117.965 34.856C117.261 34.504 116.749 34.04 116.429 33.464C116.141 32.888 115.997 32.216 115.997 31.448C115.229 32.664 114.301 33.624 113.213 34.328C112.125 35 110.797 35.336 109.229 35.336ZM112.637 32.264C113.277 32.264 113.853 32.12 114.365 31.832C114.909 31.512 115.421 31 115.901 30.296V20.456C115.613 20.936 115.213 21.368 114.701 21.752C114.189 22.136 113.645 22.536 113.069 22.952C112.493 23.336 111.933 23.768 111.389 24.248C110.877 24.728 110.461 25.32 110.141 26.024C109.821 26.728 109.661 27.576 109.661 28.568C109.661 29.816 109.933 30.744 110.477 31.352C111.021 31.96 111.741 32.264 112.637 32.264Z" fill="black" fill-opacity="0.2"/>
<path d="M150.164 10.184V11.144C149.556 11.304 148.98 11.688 148.436 12.296C147.892 12.872 147.364 13.864 146.852 15.272L139.844 35.096C139.332 35.064 138.804 35.048 138.26 35.048C137.748 35.048 137.236 35.064 136.724 35.096L128.18 13.88C127.668 12.632 127.156 11.88 126.644 11.624C126.164 11.336 125.748 11.192 125.396 11.192V10.184C126.42 10.248 127.476 10.312 128.564 10.376C129.684 10.408 130.9 10.424 132.212 10.424C133.204 10.424 134.244 10.408 135.332 10.376C136.452 10.312 137.492 10.248 138.452 10.184V11.192C137.78 11.192 137.172 11.224 136.628 11.288C136.116 11.352 135.764 11.56 135.572 11.912C135.38 12.264 135.412 12.888 135.668 13.784L141.284 28.664L140.804 29.336L144.596 18.824C145.204 17.096 145.46 15.688 145.364 14.6C145.268 13.48 144.916 12.648 144.308 12.104C143.7 11.528 142.884 11.208 141.86 11.144V10.184C142.34 10.216 142.852 10.248 143.396 10.28C143.972 10.28 144.516 10.296 145.028 10.328C145.572 10.328 146.052 10.328 146.468 10.328C147.108 10.328 147.78 10.312 148.484 10.28C149.188 10.248 149.748 10.216 150.164 10.184Z" fill="#141414"/>
<path d="M150.164 10.184V11.144C149.556 11.304 148.98 11.688 148.436 12.296C147.892 12.872 147.364 13.864 146.852 15.272L139.844 35.096C139.332 35.064 138.804 35.048 138.26 35.048C137.748 35.048 137.236 35.064 136.724 35.096L128.18 13.88C127.668 12.632 127.156 11.88 126.644 11.624C126.164 11.336 125.748 11.192 125.396 11.192V10.184C126.42 10.248 127.476 10.312 128.564 10.376C129.684 10.408 130.9 10.424 132.212 10.424C133.204 10.424 134.244 10.408 135.332 10.376C136.452 10.312 137.492 10.248 138.452 10.184V11.192C137.78 11.192 137.172 11.224 136.628 11.288C136.116 11.352 135.764 11.56 135.572 11.912C135.38 12.264 135.412 12.888 135.668 13.784L141.284 28.664L140.804 29.336L144.596 18.824C145.204 17.096 145.46 15.688 145.364 14.6C145.268 13.48 144.916 12.648 144.308 12.104C143.7 11.528 142.884 11.208 141.86 11.144V10.184C142.34 10.216 142.852 10.248 143.396 10.28C143.972 10.28 144.516 10.296 145.028 10.328C145.572 10.328 146.052 10.328 146.468 10.328C147.108 10.328 147.78 10.312 148.484 10.28C149.188 10.248 149.748 10.216 150.164 10.184Z" fill="black" fill-opacity="0.2"/>
<path d="M163.036 9.512C165.372 9.512 167.42 9.944 169.18 10.808C170.94 11.672 172.316 13.064 173.308 14.984C174.3 16.904 174.796 19.448 174.796 22.616C174.796 25.784 174.3 28.328 173.308 30.248C172.316 32.136 170.94 33.512 169.18 34.376C167.42 35.24 165.372 35.672 163.036 35.672C160.764 35.672 158.732 35.24 156.94 34.376C155.18 33.512 153.788 32.136 152.764 30.248C151.772 28.328 151.276 25.784 151.276 22.616C151.276 19.448 151.772 16.904 152.764 14.984C153.788 13.064 155.18 11.672 156.94 10.808C158.732 9.944 160.764 9.512 163.036 9.512ZM163.036 10.472C161.756 10.472 160.684 11.432 159.82 13.352C158.956 15.24 158.524 18.328 158.524 22.616C158.524 26.904 158.956 29.992 159.82 31.88C160.684 33.768 161.756 34.712 163.036 34.712C164.348 34.712 165.42 33.768 166.252 31.88C167.116 29.992 167.548 26.904 167.548 22.616C167.548 18.328 167.116 15.24 166.252 13.352C165.42 11.432 164.348 10.472 163.036 10.472Z" fill="#141414"/>
<path d="M163.036 9.512C165.372 9.512 167.42 9.944 169.18 10.808C170.94 11.672 172.316 13.064 173.308 14.984C174.3 16.904 174.796 19.448 174.796 22.616C174.796 25.784 174.3 28.328 173.308 30.248C172.316 32.136 170.94 33.512 169.18 34.376C167.42 35.24 165.372 35.672 163.036 35.672C160.764 35.672 158.732 35.24 156.94 34.376C155.18 33.512 153.788 32.136 152.764 30.248C151.772 28.328 151.276 25.784 151.276 22.616C151.276 19.448 151.772 16.904 152.764 14.984C153.788 13.064 155.18 11.672 156.94 10.808C158.732 9.944 160.764 9.512 163.036 9.512ZM163.036 10.472C161.756 10.472 160.684 11.432 159.82 13.352C158.956 15.24 158.524 18.328 158.524 22.616C158.524 26.904 158.956 29.992 159.82 31.88C160.684 33.768 161.756 34.712 163.036 34.712C164.348 34.712 165.42 33.768 166.252 31.88C167.116 29.992 167.548 26.904 167.548 22.616C167.548 18.328 167.116 15.24 166.252 13.352C165.42 11.432 164.348 10.472 163.036 10.472Z" fill="black" fill-opacity="0.2"/>
</svg>
